<svg width="4161" height="4159" xmlns="http://www.w3.org/2000/svg" xmlns:xlink="http://www.w3.org/1999/xlink" xml:space="preserve" overflow="hidden"><defs><clipPath id="clip0"><rect x="-2" y="0" width="4161" height="4159"/></clipPath></defs><g clip-path="url(#clip0)" transform="translate(2 0)"><rect x="-2.00007" y="0" width="4160" height="4158" fill="#8CC066"/><path d="M0 2079.5C-2.64748e-13 931.024 931.024-2.64748e-13 2079.5-5.29496e-13 3227.98-1.05899e-12 4159 931.024 4159 2079.5 4159 3227.98 3227.98 4159 2079.5 4159 931.024 4159-1.32374e-12 3227.98 0 2079.5Z" fill="#8CC066" fill-rule="evenodd"/><path d="M2067 3053 3051.02 1107 3653 1107 2668.98 3053Z" fill="#FFFFFF" fill-rule="evenodd"/><path d="M503 3051 1487.02 1105 2089 1105 1104.98 3051Z" fill="#FFFFFF" fill-rule="evenodd"/><path d="M1286 3051 2270.02 1105 2872 1105 1887.98 3051Z" fill="#FFFFFF" fill-rule="evenodd"/></g></svg>