<svg width="4161" height="4158" xmlns="http://www.w3.org/2000/svg" xmlns:xlink="http://www.w3.org/1999/xlink" xml:space="preserve" overflow="hidden"><defs><clipPath id="clip0"><rect x="0" y="0" width="4161" height="4158"/></clipPath><clipPath id="clip1"><rect x="693" y="772" width="2771" height="1307"/></clipPath><clipPath id="clip2"><rect x="693" y="772" width="2771" height="1307"/></clipPath><clipPath id="clip3"><rect x="693" y="772" width="2771" height="1307"/></clipPath><clipPath id="clip4"><rect x="693" y="772" width="2771" height="1307"/></clipPath></defs><g clip-path="url(#clip0)"><g clip-path="url(#clip1)"><g clip-path="url(#clip2)"><g clip-path="url(#clip3)"><g clip-path="url(#clip4)"><path d="M2352.59 2240.93 3013.52 934.362 3417.85 934.362 2756.92 2240.93Z" fill="#F2F2F2" fill-rule="evenodd" transform="matrix(1 0 0 1.00033 -608.433 -162.672)"/><path d="M1301.43 2240.93 1962.37 934.362 2366.7 934.362 1705.76 2240.93Z" fill="#F2F2F2" fill-rule="evenodd" transform="matrix(1 0 0 1.00033 -608.433 -162.672)"/><path d="M1827.65 2240.93 2488.59 934.362 2892.92 934.362 2231.98 2240.93Z" fill="#F2F2F2" fill-rule="evenodd" transform="matrix(1 0 0 1.00033 -608.433 -162.672)"/><path d="M2764.58 1587.65C2764.58 1226.85 3057.35 934.362 3418.51 934.362 3779.66 934.362 4072.43 1226.85 4072.43 1587.65 4072.43 1948.44 3779.66 2240.93 3418.51 2240.93 3057.35 2240.93 2764.58 1948.44 2764.58 1587.65ZM3124.89 1587.65C3124.89 1749.45 3256.35 1880.62 3418.51 1880.62 3580.66 1880.62 3712.13 1749.45 3712.13 1587.65 3712.13 1425.84 3580.66 1294.67 3418.51 1294.67 3256.35 1294.67 3124.89 1425.84 3124.89 1587.65Z" fill="#F2F2F2" fill-rule="evenodd" transform="matrix(1 0 0 1.00033 -608.433 -162.672)"/></g></g></g></g><text fill="#F2F2F2" font-family="Source Han Sans CN Normal,Source Han Sans CN Normal_MSFontService,sans-serif" font-weight="300" font-size="509" transform="matrix(1 0 0 1 676.787 2727)">MICROKEEP</text><text fill="#F2F2F2" font-family="YouYuan,YouYuan_MSFontService,sans-serif" font-weight="400" font-size="509" transform="matrix(1 0 0 1 1000.83 3302)">麥克基普</text></g></svg>