<svg width="2339" height="2340" xmlns="http://www.w3.org/2000/svg" xmlns:xlink="http://www.w3.org/1999/xlink" xml:space="preserve" overflow="hidden"><defs><clipPath id="clip0"><rect x="792" y="909" width="2339" height="2340"/></clipPath></defs><g clip-path="url(#clip0)" transform="translate(-792 -909)"><rect x="792" y="909" width="2339" height="2339" fill="#5B9BD5"/><path d="M792 2079C792 1432.83 1315.6 909 1961.5 909 2607.4 909 3131 1432.83 3131 2079 3131 2725.17 2607.4 3249 1961.5 3249 1315.6 3249 792 2725.17 792 2079Z" fill="#5B9BD5" fill-rule="evenodd"/><path d="M1954 2627 2507.43 1532 2846 1532 2292.57 2627Z" fill="#FFFFFF" fill-rule="evenodd"/><path d="M1075 2626 1627.81 1531 1966 1531 1413.19 2626Z" fill="#FFFFFF" fill-rule="evenodd"/><path d="M1515 2626 2068.43 1531 2407 1531 1853.57 2626Z" fill="#FFFFFF" fill-rule="evenodd"/></g></svg>