<svg width="4001" height="1138" xmlns="http://www.w3.org/2000/svg" xmlns:xlink="http://www.w3.org/1999/xlink" xml:space="preserve" overflow="hidden"><defs><clipPath id="clip0"><rect x="162" y="216" width="4001" height="1138"/></clipPath><clipPath id="clip1"><rect x="161" y="347" width="1616" height="763"/></clipPath><clipPath id="clip2"><rect x="161" y="347" width="1616" height="763"/></clipPath><clipPath id="clip3"><rect x="161" y="347" width="1616" height="763"/></clipPath><clipPath id="clip4"><rect x="161" y="347" width="1616" height="763"/></clipPath></defs><g clip-path="url(#clip0)" transform="translate(-162 -216)"><g clip-path="url(#clip1)"><g clip-path="url(#clip2)"><g clip-path="url(#clip3)"><g clip-path="url(#clip4)"><path d="M1371.14 1306.06 1756.35 544.567 1992 544.567 1606.79 1306.06Z" fill="#F2F2F2" fill-rule="evenodd" transform="matrix(1 0 0 1.00066 -596.504 -196.928)"/><path d="M758.504 1306.06 1143.71 544.567 1379.36 544.567 994.156 1306.06Z" fill="#F2F2F2" fill-rule="evenodd" transform="matrix(1 0 0 1.00066 -596.504 -196.928)"/><path d="M1065.2 1306.06 1450.4 544.567 1686.06 544.567 1300.85 1306.06Z" fill="#F2F2F2" fill-rule="evenodd" transform="matrix(1 0 0 1.00066 -596.504 -196.928)"/><path d="M1611.26 925.315C1611.26 715.034 1781.89 544.567 1992.38 544.567 2202.87 544.567 2373.5 715.034 2373.5 925.315 2373.5 1135.59 2202.87 1306.06 1992.38 1306.06 1781.89 1306.06 1611.26 1135.59 1611.26 925.315ZM1821.25 925.315C1821.25 1019.62 1897.88 1096.07 1992.38 1096.07 2086.89 1096.07 2163.51 1019.62 2163.51 925.315 2163.51 831.011 2086.89 754.562 1992.38 754.562 1897.88 754.562 1821.25 831.011 1821.25 925.315Z" fill="#F2F2F2" fill-rule="evenodd" transform="matrix(1 0 0 1.00066 -596.504 -196.928)"/></g></g></g></g><text fill="#F2F2F2" font-family="Source Han Sans CN Normal,Source Han Sans CN Normal_MSFontService,sans-serif" font-weight="300" font-size="367" transform="matrix(1 0 0 1 1916.77 1037)">MICROKEEP</text><text fill="#F2F2F2" font-family="YouYuan,YouYuan_MSFontService,sans-serif" font-weight="400" font-size="303" transform="matrix(1 0 0 1 1916.77 619)">麥克基普</text></g></svg>